<?xml version="1.0"?>
<svg xmlns="http://www.w3.org/2000/svg" id="Layer_1" data-name="Layer 1" viewBox="0 0 512 512" width="512" height="512"><title>Product Idea</title><polygon points="440.49 220.71 492.86 299.05 440.23 321.45 311.36 376.29 259.91 299.13 440.49 220.71" style="fill:#e48e66"/><path d="M488.86,212.3l-50.19,7.09L314.36,156.61l-.11-.11c.12-.11.23-.23.34-.34a80.706,80.706,0,0,0,16.94-27.14l.48.19Z" style="fill:#e48e66"/><path d="M440.49,220.71,259.91,299.13l-1.05.46-1.05-.46L77.24,220.71l.12-.19-.43-.06,122.81-62.02.01-.01c.34.36.69.69,1.04,1.02a53.523,53.523,0,0,1,15.82,45.99l-.89,6.87a1.487,1.487,0,0,0,1.49,1.79h2.96v37.37a16.384,16.384,0,0,0,16.39,16.38h38.89a16.384,16.384,0,0,0,16.39-16.38V214.1h2.22a2.03,2.03,0,0,0,1.99-2.09l-.6-11.35c-.89-15.53,4.78-30.76,15.83-41.21,1.02-.96,2.01-1.95,2.97-2.95l.11.11,124.31,62.78,2.25,1.13Z" style="fill:#f8ec7d"/><polygon points="440.37 321.78 440.37 389.16 258.86 492.14 258.86 299.59 259.91 299.13 311.36 376.29 440.23 321.45 440.37 321.78" style="fill:#e48e66"/><path d="M256,157.86a14,14,0,1,0-14-14A14,14,0,0,0,256,157.86Zm-76.16-30.69a80.82,80.82,0,0,1-4.44-29.83c1.5-40.91,34.64-74.66,75.55-77.34a80.833,80.833,0,0,1,80.6,108.97c-.01.02-.01.03-.02.05a80.706,80.706,0,0,1-16.94,27.14c-.11.11-.22.23-.34.34-.96,1-1.95,1.99-2.97,2.95-11.05,10.45-16.72,25.68-15.83,41.21l.6,11.35a2.03,2.03,0,0,1-1.99,2.09H217.21a1.487,1.487,0,0,1-1.49-1.79l.89-6.87a53.523,53.523,0,0,0-15.82-45.99c-.35-.33-.7-.66-1.04-1.02A80.519,80.519,0,0,1,179.84,127.17Z" style="fill:#6fe3ff"/><path d="M291.84,214.1v37.37a16.384,16.384,0,0,1-16.39,16.38H236.56a16.384,16.384,0,0,1-16.39-16.38V214.1Z" style="fill:#2561a1"/><circle cx="256" cy="143.86" r="14" style="fill:#6fe3ff"/><polygon points="258.86 299.59 258.86 492.14 77.36 389.16 77.36 321.39 206.37 376.29 257.81 299.13 258.86 299.59" style="fill:#af593c"/><polygon points="257.81 299.13 206.37 376.29 77.36 321.39 24.86 299.05 77.24 220.71 257.81 299.13" style="fill:#af593c"/><path d="M199.75,158.43l-.01.01L76.93,220.46,19.14,212.3l160.7-85.13A80.519,80.519,0,0,0,199.75,158.43Z" style="fill:#e48e66"/><path d="M256,163.86a20,20,0,1,1,20-20A20.023,20.023,0,0,1,256,163.86Zm0-28a8,8,0,1,0,8,8A8.009,8.009,0,0,0,256,135.86Z" style="fill:#2561a1"/><rect x="250" y="157.86" width="12" height="56" style="fill:#2561a1"/></svg>
